{"title":"ÄŒuvari.tajnog.kraljevstva.2013.720p.Bluray.x264.SRsinh","uid":9988902,"size":2193251054,"categoryP":"video","categoryS":"hd___movies","magnet":"?xt=urn:btih:6fe81d276249871215d563286428e916b95c5c0c&amp;dn=%C4%8Cuvari.tajnog.kraljevstva.2013.720p.Bluray.x264.SRsinh&amp;tr=udp%3A%2F%2Ftracker.openbittorrent.com%3A80&amp;tr=udp%3A%2F%2Fopen.demonii.com%3A1337&amp;tr=udp%3A%2F%2Ftracker.coppersurfer.tk%3A6969&amp;tr=udp%3A%2F%2Fexodus.desync.com%3A6969","seeders":3,"leechers":1,"uploader":"xenoncity","files":-1,"time":1397782572,"description":"Epic / ÄŒuvari tajnog kraljevstva (Sinhronizovano na Srpski)\n\n\n* * * * * * * * * * * * * * * * *\n\n\nEpic.2013.720p.Bluray.x264.SR.mkv\n\nFormat : Matroska\nFormat version : Version 4 / Version 2\nFile size : 2.04 GiB\nDuration : 1h 42mn\nOverall bit rate : 2 853 Kbps\nEncoded date : UTC 2014-03-11 18:30:39\nWriting application : mkvmerge v6.8.0 ('Theme for Great Cities') 32bit built on Mar 2 2014 21:27:07\nWriting library : libebml v1.3.0 + libmatroska v1.4.1\n\nVideo\nID : 1\nFormat : AVC\nFormat/Info : Advanced Video Codec\nFormat profile : &lt;a class=&quot;__cf_email__&quot; href=&quot;/cdn-cgi/l/email-protection&quot; data-cfemail=&quot;9dd5f4faf5ddd1a9b3ad&quot;&gt;[email&amp;#160;protected]&lt;/a&gt;&lt;script cf-hash='f9e31' type=&quot;text/javascript&quot;&gt;\n/* &lt;![CDATA[ */!function(){try{var t=&quot;currentScript&quot;in document?document.currentScript:function(){for(var t=document.getElementsByTagName(&quot;script&quot;),e=t.length;e--;)if(t[e].getAttribute(&quot;cf-hash&quot;))return t[e]}();if(t&amp;&amp;t.previousSibling){var e,r,n,i,c=t.previousSibling,a=c.getAttribute(&quot;data-cfemail&quot;);if(a){for(e=&quot;&quot;,r=parseInt(a.substr(0,2),16),n=2;a.length-n;n+=2)i=parseInt(a.substr(n,2),16)^r,e+=String.fromCharCode(i);e=document.createTextNode(e),c.parentNode.replaceChild(e,c)}}}catch(u){}}();/* ]]&gt; */&lt;/script&gt;\nFormat settings, CABAC : Yes\nFormat settings, ReFrames : 9 frames\nCodec ID : V_MPEG4/ISO/AVC\nDuration : 1h 42mn\nBit rate : 2 349 Kbps\nWidth : 1 280 pixels\nHeight : 534 pixels\nDisplay aspect ratio : 2.40:1\nFrame rate mode : Constant\nFrame rate : 23.976 fps\nColor space : YUV\nChroma subsampling : 4:2:0\nBit depth : 8 bits\nScan type : Progressive\nBits/(Pixel*Frame) : 0.143\nStream size : 1.68 GiB (82%)\nWriting library : x264 core 133 r2334 a3ac64b\nLanguage : English\nDefault : Yes\nForced : No\n\nAudio\nID : 2\nFormat : AC-3\nFormat/Info : Audio Coding 3\nMode extension : CM (complete main)\nFormat settings, Endianness : Big\nCodec ID : A_AC3\nDuration : 1h 42mn\nBit rate mode : Constant\nBit rate : 448 Kbps\nChannel(s) : 6 channels\nChannel positions : Front: L C R, Side: L R, LFE\nSampling rate : 48.0 KHz\nBit depth : 16 bits\nCompression mode : Lossy\nStream size : 328 MiB (16%)\nLanguage : Serbian\nDefault : Yes\nForced : No","torrent":{"xt":"urn:btih:6fe81d276249871215d563286428e916b95c5c0c","amp;dn":"%C4%8Cuvari.tajnog.kraljevstva.2013.720p.Bluray.x264.SRsinh","amp;tr":["udp%3A%2F%2Ftracker.openbittorrent.com%3A80","udp%3A%2F%2Fopen.demonii.com%3A1337","udp%3A%2F%2Ftracker.coppersurfer.tk%3A6969","udp%3A%2F%2Fexodus.desync.com%3A6969"],"infoHash":"6fe81d276249871215d563286428e916b95c5c0c","infoHashBuffer":{"type":"Buffer","data":[111,232,29,39,98,73,135,18,21,213,99,40,100,40,233,22,185,92,92,12]},"announce":[],"urlList":[]}}